<svg xmlns="http://www.w3.org/2000/svg" width="1000" height="500" viewBox="0 0 1000 500">
  <metadata><?xpacket begin="﻿" id="W5M0MpCehiHzreSzNTczkc9d"?>
<x:xmpmeta xmlns:x="adobe:ns:meta/" x:xmptk="Adobe XMP Core 5.6-c140 79.160451, 2017/05/06-01:08:21        ">
   <rdf:RDF xmlns:rdf="http://www.w3.org/1999/02/22-rdf-syntax-ns#">
      <rdf:Description rdf:about=""/>
   </rdf:RDF>
</x:xmpmeta>
                                                                                                    
                                                                                                    
                                                                                                    
                                                                                                    
                                                                                                    
                                                                                                    
                                                                                                    
                                                                                                    
                                                                                                    
                                                                                                    
                                                                                                    
                                                                                                    
                                                                                                    
                                                                                                    
                                                                                                    
                                                                                                    
                                                                                                    
                                                                                                    
                                                                                                    
                                                                                                    
                           
<?xpacket end="w"?></metadata>
<defs>
    <style>
      .cls-1 {
        fill: #c06161;
      }

      .cls-1, .cls-2 {
        fill-rule: evenodd;
      }

      .cls-2 {
        stroke: #fff;
        stroke-linejoin: round;
        stroke-width: 2px;
      }
    </style>
  </defs>
  <path id="ShadowShape" class="cls-1" d="M241.279,326.945c0,18.334,6.25,32.5,18.75,32.5,20.834,0,42.5-15.416,42.5-36.667,0-7.083-1.251-15-2.5-22.917,2.5-68.75,50.834-157.5,83.751-157.5,9.167,0,12.084,7.5,12.084,20,0,42.084-32.084,115.834-32.084,150,0,23.334,14.167,42.084,42.917,42.084,43.751,0,95.835-47.5,95.835-83.751,0-9.583-3.333-15.833-7.5-15.833-7.5,0-46.251,51.667-63.334,51.667-7.917,0-10.834-5.833-10.834-15.833,0-23.334,25-90.835,25-142.086,0-35.417-12.084-63.334-52.5-63.334-27.5,0-48.334,15.417-64.168,37.5v-3.334c0-43.333-9.583-79.584-60.834-79.584-34.167,0-59.584,23.75-77.917,57.917-0.834-31.667-8.334-57.084-46.667-57.084-37.918,0-70.835,21.667-70.835,52.084,0,8.751,2.5,11.667,6.667,11.667,16.25,0,25.834-20.833,41.251-20.833,12.916,0,17.083,16.25,17.083,33.75,0,16.25-30,143.752-30,201.669,0,25.417,7.083,40.417,20.833,40.417,10.834,0,20.417-5.416,30.834-10.416,12.917-6.25,17.084-17.5,17.084-30.834,0-15.834-4.167-32.917-7.917-51.667,0-2.5.417-5.417,0.417-7.917,10.833-52.5,42.083-162.085,91.251-162.085,16.667,0,21.25,14.584,21.25,37.5C281.7,194.443,241.279,289.861,241.279,326.945Zm311.66-176.252c-8.75,0-25,2.083-35,10l-12.083,98.751c-9.167,17.5-13.334,28.334-13.334,42.5,0,34.167,24.584,49.584,62.084,49.584,26.667,0,44.167-12.5,55.834-28.751-2.083,12.084-5,24.167-7.917,35.834-63.334,15-114.584,17.5-114.584,53.334,0,31.25,30.417,55.417,66.251,55.417,60.417,0,73.334-37.5,86.667-82.084,57.918-26.25,101.251-82.5,101.251-114.585,0-9.583-1.666-14.583-5.833-14.583-10.417,0-30.834,41.25-79.168,77.5,17.084-56.251,35.834-125,35.834-147.085,0-10-15.417-41.251-32.084-41.251-5.416,0-12.5,2.5-16.25,11.667-4.583,11.25-22.917,73.334-31.667,110.835-7.5,22.083-17.083,39.167-38.75,39.167-14.584,0-18.751-6.25-18.751-15,0-39.168,19.584-67.918,19.584-100.835C575.023,169.86,572.523,150.693,552.939,150.693Zm0.834,284.587c-10.417,0-27.5-6.25-27.5-18.334,0-10,23.334-7.917,62.918-15.833C580.023,421.529,568.356,435.28,553.773,435.28Zm228.745-80.418c9.583,0,23.333-20,39.584-45.417,13.75,25.833,29.583,45,50.834,45,45.417,0,92.084-47.5,92.084-83.751,0-9.583-1.667-14.583-5.833-14.583-7.917,0-45,50.417-61.251,50.417-12.084,0-23.334-30-32.917-59.167,41.25-52.084,67.5-56.668,67.5-77.5,0-11.667-20-17.084-30.834-17.084-2.917,0-6.667.834-8.75,4.584-7.084,12.916-25,35-40,52.917l-1.25-4.167c-14.166-31.25-36.25-58.334-59.584-58.334-18.333,0-36.667,29.584-36.667,45s9.167,29.167,30,29.167c11.251,0,17.917,22.917,23.751,45.417-32.5,42.5-56.668,69.167-56.668,70.834C752.517,345.7,768.351,354.862,782.518,354.862Z"/>
  <path id="MyxShape" class="cls-2" d="M227.279,333.945c0,18.334,6.25,32.5,18.75,32.5,20.834,0,42.5-15.416,42.5-36.667,0-7.083-1.251-15-2.5-22.917,2.5-68.751,50.834-157.5,83.751-157.5,9.167,0,12.084,7.5,12.084,20,0,42.083-32.084,115.834-32.084,150,0,23.333,14.167,42.083,42.917,42.083,43.751,0,95.835-47.5,95.835-83.751,0-9.583-3.333-15.833-7.5-15.833-7.5,0-46.251,51.667-63.334,51.667-7.917,0-10.834-5.833-10.834-15.833,0-23.334,25-90.835,25-142.086,0-35.417-12.084-63.334-52.5-63.334-27.5,0-48.334,15.417-64.168,37.5v-3.334c0-43.333-9.583-79.584-60.834-79.584-34.167,0-59.584,23.75-77.917,57.918-0.834-31.668-8.334-57.084-46.667-57.084-37.918,0-70.835,21.667-70.835,52.084,0,8.751,2.5,11.667,6.667,11.667,16.25,0,25.834-20.833,41.251-20.833,12.916,0,17.083,16.25,17.083,33.75,0,16.25-30,143.752-30,201.669,0,25.417,7.083,40.417,20.833,40.417,10.834,0,20.417-5.416,30.834-10.416,12.917-6.25,17.084-17.5,17.084-30.834,0-15.834-4.167-32.917-7.917-51.667,0-2.5.417-5.417,0.417-7.917,10.833-52.5,42.083-162.085,91.251-162.085,16.667,0,21.25,14.583,21.25,37.5C267.7,201.443,227.279,296.861,227.279,333.945Zm311.66-176.252c-8.75,0-25,2.083-35,10l-12.083,98.751c-9.167,17.5-13.334,28.334-13.334,42.5,0,34.167,24.584,49.584,62.084,49.584,26.667,0,44.167-12.5,55.834-28.751-2.083,12.084-5,24.167-7.917,35.834-63.334,15-114.584,17.5-114.584,53.334,0,31.25,30.417,55.417,66.251,55.417,60.417,0,73.334-37.5,86.667-82.084,57.918-26.25,101.251-82.5,101.251-114.585,0-9.583-1.666-14.583-5.833-14.583-10.417,0-30.834,41.25-79.168,77.5,17.084-56.251,35.834-125,35.834-147.085,0-10-15.417-41.251-32.084-41.251-5.416,0-12.5,2.5-16.25,11.667-4.583,11.25-22.917,73.334-31.667,110.835-7.5,22.083-17.083,39.167-38.75,39.167-14.584,0-18.751-6.25-18.751-15,0-39.168,19.584-67.918,19.584-100.835C561.023,176.86,558.523,157.693,538.939,157.693Zm0.834,284.587c-10.417,0-27.5-6.25-27.5-18.334,0-10,23.334-7.917,62.918-15.833C566.023,428.53,554.356,442.28,539.773,442.28Zm228.745-80.418c9.583,0,23.333-20,39.584-45.417,13.75,25.833,29.583,45,50.834,45,45.417,0,92.084-47.5,92.084-83.751,0-9.583-1.667-14.583-5.833-14.583-7.917,0-45,50.417-61.251,50.417-12.084,0-23.334-30-32.917-59.167,41.25-52.084,67.5-56.668,67.5-77.5,0-11.667-20-17.084-30.834-17.084-2.917,0-6.667.834-8.75,4.584-7.084,12.916-25,35-40,52.917l-1.25-4.167c-14.166-31.25-36.25-58.334-59.584-58.334-18.333,0-36.667,29.584-36.667,45s9.167,29.167,30,29.167c11.251,0,17.917,22.917,23.751,45.417-32.5,42.5-56.668,69.167-56.668,70.834C738.517,352.7,754.351,361.862,768.518,361.862Z"/>
</svg>
