<svg xmlns="http://www.w3.org/2000/svg" viewBox="0 0 1245.31 513.47"><defs><style>.a,.b{fill:#1a1a1a;}.b,.c{stroke:#000;stroke-miterlimit:10;stroke-width:4px;}.c{fill:#333;}.d{fill:#f93;}.e{fill:#f33;}.f{fill:#6cf;}</style></defs><title>par-cans-right</title><rect class="a" x="558.64" y="5.01" width="39.33" height="90.12"/><path class="b" d="M432.9,192.09,568.55,337.68a43.77,43.77,0,0,0,71.57-11.08L703,194a43.77,43.77,0,0,0-36.7-62.44l-198.56-13C428.24,116,405.89,163.1,432.9,192.09Z" transform="translate(-23.59 5.01)"/><rect class="b" x="435.31" y="12.01" width="211.29" height="265.63" rx="16.96" ry="16.96" transform="translate(147.58 570.41) rotate(-63.66)"/><polygon class="c" points="788.43 133.56 701.25 90.71 602.32 135.21 549.6 240.98 573.95 346.08 661.13 388.93 760.06 344.43 812.79 238.65 788.43 133.56"/><ellipse class="d" cx="704.5" cy="234.67" rx="114.84" ry="89.24" transform="translate(158.06 766.96) rotate(-63.66)"/><rect class="a" x="205.95" width="39.33" height="126.5" transform="translate(427.64 131.51) rotate(-180)"/><path class="b" d="M416.69,203.11,306.8,369a43.77,43.77,0,0,1-72.42.83L150.53,249.35a43.77,43.77,0,0,1,25.94-67.61L370.2,136.32C408.79,127.28,438.57,170.07,416.69,203.11Z" transform="translate(-23.59 5.01)"/><rect class="b" x="169.52" y="68.6" width="265.63" height="211.29" rx="16.96" ry="16.96" transform="translate(-68.4 214.72) rotate(-35.79)"/><rect class="a" x="315.01" width="39.33" height="54.63" transform="translate(645.74 59.64) rotate(-180)"/><polygon class="c" points="9.09 207.51 88.16 150.61 192.93 178.03 262.04 273.71 255 381.59 175.93 438.49 71.15 411.07 2.04 315.4 9.09 207.51"/><ellipse class="e" cx="155.77" cy="289.72" rx="89.24" ry="114.84" transform="translate(-163.62 150.82) rotate(-35.79)"/><rect class="a" x="1007.72" width="39.33" height="199.3" transform="translate(2031.17 204.31) rotate(-180)"/><path class="b" d="M1218.45,275.91,1108.57,441.8a43.77,43.77,0,0,1-72.42.83L952.3,322.15a43.77,43.77,0,0,1,25.94-67.62L1172,209.12C1210.55,200.08,1240.33,242.87,1218.45,275.91Z" transform="translate(-23.59 5.01)"/><rect class="b" x="971.28" y="141.39" width="265.63" height="211.29" rx="16.96" ry="16.96" transform="translate(40.42 697.36) rotate(-35.79)"/><rect class="a" x="1116.77" width="39.33" height="127.43" transform="translate(2249.27 132.44) rotate(-180)"/><polygon class="c" points="810.85 280.31 889.92 223.41 994.7 250.83 1063.81 346.5 1056.76 454.39 977.69 511.29 872.92 483.87 803.81 388.19 810.85 280.31"/><ellipse class="f" cx="957.53" cy="362.52" rx="89.24" ry="114.84" transform="translate(-54.79 633.45) rotate(-35.79)"/></svg>