<svg xmlns="http://www.w3.org/2000/svg" xmlns:xlink="http://www.w3.org/1999/xlink" viewBox="0 0 979.58 933.86"><defs><style>.a,.g{opacity:0.5;}.a{fill:url(#a);}.b,.c{fill:#1a1a1a;}.c,.d{stroke:#000;stroke-miterlimit:10;stroke-width:4px;}.d{fill:#333;}.e{fill:#ff6;}.f{fill:#093;}.g{fill:url(#b);}</style><linearGradient id="a" x1="602.85" y1="416.14" x2="321.4" y2="652.46" gradientTransform="matrix(1.1, -0.09, -0.09, 1.07, -34.47, 29.28)" gradientUnits="userSpaceOnUse"><stop offset="0" stop-color="#fff" stop-opacity="0"/><stop offset="0.01" stop-color="#f4faf6" stop-opacity="0.04"/><stop offset="0.06" stop-color="#b3e1c2" stop-opacity="0.3"/><stop offset="0.12" stop-color="#7cca96" stop-opacity="0.52"/><stop offset="0.17" stop-color="#4eb872" stop-opacity="0.69"/><stop offset="0.24" stop-color="#2caa56" stop-opacity="0.83"/><stop offset="0.31" stop-color="#13a142" stop-opacity="0.93"/><stop offset="0.39" stop-color="#049b37" stop-opacity="0.98"/><stop offset="0.53" stop-color="#093"/><stop offset="0.61" stop-color="#30ac59" stop-opacity="0.81"/><stop offset="0.88" stop-color="#c4e7d0" stop-opacity="0.23"/><stop offset="1" stop-color="#fff" stop-opacity="0"/></linearGradient><linearGradient id="b" x1="1108.11" y1="697.46" x2="827" y2="933.5" gradientTransform="matrix(-0.33, -1.1, 1.11, -0.08, 57.02, 1716.64)" gradientUnits="userSpaceOnUse"><stop offset="0" stop-color="#fff" stop-opacity="0"/><stop offset="0.01" stop-color="#fffff8" stop-opacity="0.04"/><stop offset="0.05" stop-color="#ffffda" stop-opacity="0.24"/><stop offset="0.09" stop-color="#ffffbe" stop-opacity="0.42"/><stop offset="0.13" stop-color="#ffffa7" stop-opacity="0.58"/><stop offset="0.18" stop-color="#ffff93" stop-opacity="0.71"/><stop offset="0.23" stop-color="#ffff82" stop-opacity="0.82"/><stop offset="0.28" stop-color="#ffff76" stop-opacity="0.9"/><stop offset="0.34" stop-color="#ffff6d" stop-opacity="0.96"/><stop offset="0.42" stop-color="#ffff68" stop-opacity="0.99"/><stop offset="0.53" stop-color="#ff6"/><stop offset="0.75" stop-color="#ffffb4" stop-opacity="0.49"/><stop offset="0.92" stop-color="#ffffea" stop-opacity="0.14"/><stop offset="1" stop-color="#fff" stop-opacity="0"/></linearGradient></defs><title>par-cans-left-fade</title><path class="a" d="M596.68,397.14,75.7,644a16.39,16.39,0,0,0-5.48,25.42L263.38,896.79a16.4,16.4,0,0,0,26-1.29L617.18,421.28C626.72,407.48,611.83,390,596.68,397.14Z" transform="translate(-37.98)"/><rect class="b" x="221.86" width="39.33" height="178.51"/><path class="c" d="M88.43,252,198.32,417.92a43.76,43.76,0,0,0,72.41.84l83.85-120.48a43.77,43.77,0,0,0-25.93-67.62L134.91,185.24C96.33,176.2,66.55,219,88.43,252Z" transform="translate(-37.98)"/><rect class="c" x="97.14" y="90.35" width="211.29" height="265.63" rx="16.96" ry="16.96" transform="translate(-134.81 257.14) rotate(-54.21)"/><rect class="b" x="112.81" width="39.33" height="103.55"/><polygon class="d" points="434.86 251.63 355.91 195.04 251.01 222.69 181.63 318.36 188.39 426.03 267.35 482.62 372.24 454.98 441.63 359.3 434.86 251.63"/><ellipse class="e" cx="349.35" cy="338.65" rx="114.84" ry="89.24" transform="translate(-167.63 423.98) rotate(-54.21)"/><rect class="b" x="753.43" width="39.33" height="126.5" transform="translate(1508.2 126.5) rotate(-180)"/><path class="c" d="M964.16,203.11,854.27,369a43.76,43.76,0,0,1-72.41.83L698,249.35a43.76,43.76,0,0,1,25.93-67.61l193.74-45.42C956.26,127.28,986,170.07,964.16,203.11Z" transform="translate(-37.98)"/><rect class="c" x="716.99" y="68.6" width="265.63" height="211.29" rx="16.96" ry="16.96" transform="matrix(0.81, -0.58, 0.58, 0.81, 20.6, 529.88)"/><rect class="b" x="862.48" width="39.33" height="54.63" transform="translate(1726.31 54.63) rotate(-180)"/><polygon class="d" points="542.18 202.5 621.25 145.6 726.02 173.02 795.13 268.69 788.09 376.58 709.02 433.48 604.24 406.06 535.13 310.38 542.18 202.5"/><ellipse class="f" cx="703.24" cy="289.72" rx="89.24" ry="114.84" transform="translate(-74.62 465.98) rotate(-35.79)"/><path class="g" d="M433.48,438.31l366.44,489a16.38,16.38,0,0,0,25.85.48L1013.9,695.4a16.39,16.39,0,0,0-5.86-25.19L453.48,413.61C438,406.46,423.27,424.69,433.48,438.31Z" transform="translate(-37.98)"/></svg>