<svg version="1" xmlns="http://www.w3.org/2000/svg" width="341.333" height="341.333" viewBox="0 0 256.000000 256.000000"><path d="M0 71.5c0 39.3.2 71.5.4 71.5S15.7 120 34 92c27.2-41.6 33.7-51 35.3-50.8 1.4.2 10.5 13.5 30.1 43.5 15.4 23.8 28.3 43.2 28.6 43.2.3 0 13.2-19.4 28.6-43.2 19.6-30 28.7-43.3 30.1-43.5 1.6-.2 8.1 9.2 35.3 50.8 18.3 28 33.4 51 33.6 51 .2 0 .4-32.2.4-71.5V0H0v71.5z"/><path d="M67.1 44.7C66 46.2 50.4 69.9 32.5 97.4L0 147.3v65.8l14.1-.2c7.7 0 14.3.2 14.6.5 1.1 1.1 195.1.7 195.8-.4.4-.6 0-2.2-.9-3.5-.9-1.4-2.3-3.7-3.2-5.3l-1.6-2.7 2 2.5c1.2 1.4 2.9 4 3.9 5.7l1.8 3.3H256V147.3l-33.5-51.4c-18.5-28.3-34.1-52-34.8-52.6-1-1-9.1 10.8-38.2 55.4-20.4 31.1-37.2 57-37.4 57.5-.4 1.2 13.9 22.8 15.1 22.8.5 0 .6.5.2 1.1-.3.6-5.2-5.8-10.8-14.3-13.6-20.4-13.9-20.8-13.3-20.8.3 0 2 2.3 3.7 5.1 1.8 2.7 3.6 4.7 4 4.2.4-.4 4.2-6.1 8.3-12.6l7.6-11.7-26.6-40.7C85.7 66.8 72.7 47 71.5 45.2l-2.3-3.4-2.1 2.9zm24.3 81.6l1.8 3.2-2.7-3.3c-2.7-3.2-2.8-3.3-4.9-1.5-2.1 1.8-2.1 1.8-.3-.4 2.3-2.7 3.8-2.2 6.1 2zM169 125c.6 1.1.8 2 .6 2-.3 0-1-.9-1.6-2-.6-1.1-.8-2-.6-2 .3 0 1 .9 1.6 2zm-87.6 6.2c-2.5 4.2-26.8 40.5-27.7 41.3-1.5 1.4 1-2.5 15.1-23.8 6.9-10.3 12.7-18.7 12.9-18.7.2 0 .1.6-.3 1.2zm75 5c-2.5 4.2-26.8 40.5-27.7 41.3-1.5 1.4 1-2.5 15.1-23.8 6.9-10.3 12.7-18.7 12.9-18.7.2 0 .1.6-.3 1.2zm38.3 27.8c13.6 20.5 15.3 23.2 13.6 21.5-1-1-26.1-38.5-27.8-41.5-2.7-4.9 2.8 2.9 14.2 20zM42.4 190.2c-2.2 3.8-12.8 19.4-13.7 20.3-1.3 1.2 1-2.5 8.1-13.3 3-4.5 5.7-8.2 5.9-8.2.2 0 .1.6-.3 1.2zm76 3.5c-6.5 10.1-12.4 18.7-12.4 18 0-.9 13.1-20.7 13.8-20.7.2 0-.4 1.2-1.4 2.7zM0 235.5V256h256v-41H0v20.5z"/></svg>