<svg xmlns="http://www.w3.org/2000/svg" xmlns:xlink="http://www.w3.org/1999/xlink" viewBox="0 0 1981.21 1089.11"><defs><style>.a,.b{fill:#1a1a1a;}.b,.c{stroke:#000;stroke-miterlimit:10;stroke-width:4px;}.c{fill:#333;}.d{opacity:0.3;fill:url(#a);}.e{fill:#f93;}.f{opacity:0.45;fill:url(#b);}.g{fill:#f33;}.h{opacity:0.5;fill:url(#c);}.i{fill:#6cf;}</style><linearGradient id="a" x1="1558.82" y1="1105.75" x2="1278.64" y2="1341.01" gradientTransform="matrix(-0.62, -1.15, 1.22, -0.13, 854.62, 2296.05)" gradientUnits="userSpaceOnUse"><stop offset="0" stop-color="#fff" stop-opacity="0"/><stop offset="0.01" stop-color="#fffaf6" stop-opacity="0.04"/><stop offset="0.05" stop-color="#ffe6ce" stop-opacity="0.24"/><stop offset="0.09" stop-color="#ffd4a9" stop-opacity="0.42"/><stop offset="0.13" stop-color="#ffc489" stop-opacity="0.58"/><stop offset="0.18" stop-color="#ffb76e" stop-opacity="0.71"/><stop offset="0.23" stop-color="#ffac59" stop-opacity="0.82"/><stop offset="0.28" stop-color="#ffa348" stop-opacity="0.9"/><stop offset="0.34" stop-color="#ff9e3c" stop-opacity="0.96"/><stop offset="0.42" stop-color="#ff9a35" stop-opacity="0.99"/><stop offset="0.53" stop-color="#f93"/><stop offset="0.75" stop-color="#ffcd9a" stop-opacity="0.49"/><stop offset="0.92" stop-color="#fff1e3" stop-opacity="0.14"/><stop offset="1" stop-color="#fff" stop-opacity="0"/></linearGradient><linearGradient id="b" x1="594.39" y1="392.96" x2="246.19" y2="685.33" gradientTransform="matrix(1.28, -0.05, 0.39, 1.27, -438.32, -59.26)" gradientUnits="userSpaceOnUse"><stop offset="0" stop-color="#fff" stop-opacity="0"/><stop offset="0.01" stop-color="#fff6f6" stop-opacity="0.04"/><stop offset="0.05" stop-color="#ffcece" stop-opacity="0.24"/><stop offset="0.09" stop-color="#ffa9a9" stop-opacity="0.42"/><stop offset="0.13" stop-color="#ff8989" stop-opacity="0.58"/><stop offset="0.18" stop-color="#ff6e6e" stop-opacity="0.71"/><stop offset="0.23" stop-color="#ff5959" stop-opacity="0.82"/><stop offset="0.28" stop-color="#ff4848" stop-opacity="0.9"/><stop offset="0.34" stop-color="#ff3c3c" stop-opacity="0.96"/><stop offset="0.42" stop-color="#ff3535" stop-opacity="0.99"/><stop offset="0.53" stop-color="#f33"/><stop offset="0.57" stop-color="#ff3c3c" stop-opacity="0.96"/><stop offset="0.64" stop-color="#ff5454" stop-opacity="0.84"/><stop offset="0.74" stop-color="#ff7b7b" stop-opacity="0.65"/><stop offset="0.85" stop-color="#ffb1b1" stop-opacity="0.38"/><stop offset="0.98" stop-color="#fff5f5" stop-opacity="0.05"/><stop offset="1" stop-color="#fff" stop-opacity="0"/></linearGradient><linearGradient id="c" x1="1260.99" y1="483.56" x2="973.02" y2="725.36" gradientTransform="matrix(1.37, -0.1, 0.07, 1.37, -504.67, -68.69)" gradientUnits="userSpaceOnUse"><stop offset="0" stop-color="#fff" stop-opacity="0"/><stop offset="0.01" stop-color="#f8fdff" stop-opacity="0.04"/><stop offset="0.05" stop-color="#daf3ff" stop-opacity="0.24"/><stop offset="0.09" stop-color="#bee9ff" stop-opacity="0.42"/><stop offset="0.13" stop-color="#a7e2ff" stop-opacity="0.58"/><stop offset="0.18" stop-color="#93dbff" stop-opacity="0.71"/><stop offset="0.23" stop-color="#82d5ff" stop-opacity="0.82"/><stop offset="0.28" stop-color="#76d1ff" stop-opacity="0.9"/><stop offset="0.34" stop-color="#6dceff" stop-opacity="0.96"/><stop offset="0.42" stop-color="#68cdff" stop-opacity="0.99"/><stop offset="0.53" stop-color="#6cf"/><stop offset="0.75" stop-color="#b4e6ff" stop-opacity="0.49"/><stop offset="0.92" stop-color="#eaf8ff" stop-opacity="0.14"/><stop offset="1" stop-color="#fff" stop-opacity="0"/></linearGradient></defs><title>par-cans-right-fade</title><rect class="a" x="1057.96" width="39.33" height="99.97"/><path class="b" d="M850.46,202,986.1,347.53a43.77,43.77,0,0,0,71.57-11.07l62.92-132.62a43.77,43.77,0,0,0-36.69-62.44l-198.56-13C845.79,125.85,823.45,173,850.46,202Z" transform="translate(58.17)"/><rect class="b" x="852.87" y="21.87" width="211.29" height="265.63" rx="16.96" ry="16.96" transform="translate(452.84 945.1) rotate(-63.66)"/><polygon class="c" points="1291.03 140.03 1214.42 102.41 1122.98 150.62 1070.29 256.41 1087.21 357.82 1163.82 395.44 1255.25 347.23 1307.94 241.44 1291.03 140.03"/><path class="d" d="M1211.93,354.58,1735,861.65a16.4,16.4,0,0,0,25.28-3L1920.51,604.2a16.39,16.39,0,0,0-8.18-24.11L1229,327.44C1212.4,321.29,1199.21,342.24,1211.93,354.58Z" transform="translate(58.17)"/><ellipse class="e" cx="1130.7" cy="248.8" rx="114.84" ry="78.41" transform="translate(464.29 1151.78) rotate(-63.66)"/><rect class="a" x="623.51" y="0.01" width="39.33" height="126.5" transform="translate(1344.51 126.52) rotate(-180)"/><path class="b" d="M834.24,203.12,724.36,369a43.77,43.77,0,0,1-72.42.83L568.09,249.37A43.77,43.77,0,0,1,594,181.75l193.73-45.42C826.34,127.29,856.13,170.08,834.24,203.12Z" transform="translate(58.17)"/><rect class="b" x="587.08" y="68.61" width="265.63" height="211.29" rx="16.96" ry="16.96" transform="translate(92.21 453.91) rotate(-35.79)"/><rect class="a" x="732.56" y="0.01" width="39.33" height="54.63" transform="translate(1562.62 54.65) rotate(-180)"/><polygon class="c" points="508.41 202.51 587.48 145.61 692.25 173.03 761.36 268.71 754.32 376.59 675.25 433.49 570.47 406.07 501.36 310.4 508.41 202.51"/><path class="f" d="M475.46,380.69-49.48,660.19a16.39,16.39,0,0,0-2.76,27.08l347.3,288.07a16.4,16.4,0,0,0,26.11-7.72L498.8,400.06C503.18,386.07,488.4,373.81,475.46,380.69Z" transform="translate(58.17)"/><ellipse class="g" cx="573.33" cy="289.74" rx="89.24" ry="114.84" transform="translate(-3.01 390) rotate(-35.79)"/><rect class="a" x="1425.27" y="0.01" width="39.33" height="199.3" transform="translate(2948.04 199.32) rotate(-180)"/><path class="b" d="M1636,275.92,1526.12,441.81a43.76,43.76,0,0,1-72.41.83l-83.85-120.48a43.76,43.76,0,0,1,25.93-67.61l193.74-45.42C1628.11,200.09,1657.89,242.88,1636,275.92Z" transform="translate(58.17)"/><rect class="b" x="1388.84" y="141.41" width="265.63" height="211.29" rx="16.96" ry="16.96" transform="translate(201.03 936.54) rotate(-35.79)"/><rect class="a" x="1534.33" y="0.01" width="39.33" height="127.43" transform="translate(3166.15 127.45) rotate(-180)"/><polygon class="c" points="1310.17 275.31 1389.24 218.41 1494.02 245.83 1563.13 341.5 1556.09 449.39 1477.02 506.29 1372.24 478.87 1303.13 383.19 1310.17 275.31"/><path class="h" d="M1260.72,438.37,627,756.21a16.39,16.39,0,0,0-4.49,26l289.37,301.86a16.4,16.4,0,0,0,26.16-3.38L1282.4,461C1290.23,446.88,1275.14,431.13,1260.72,438.37Z" transform="translate(58.17)"/><ellipse class="i" cx="1375.09" cy="362.53" rx="89.24" ry="114.84" transform="translate(105.82 872.64) rotate(-35.79)"/></svg>